<svg width="15" height="14" viewBox="0 0 15 14" fill="none" xmlns="http://www.w3.org/2000/svg">
<path d="M7.43055 4.89879L7.75455 5.65661C7.77651 5.72251 7.83692 5.76095 7.89733 5.76644L8.72105 5.84332C8.89677 5.8598 8.96267 6.07396 8.83637 6.18928L8.21583 6.73294C8.16641 6.77687 8.14444 6.84277 8.16092 6.90317L8.34214 7.71042C8.38058 7.88066 8.19936 8.01245 8.0456 7.92459L7.3372 7.50174C7.28228 7.4688 7.21089 7.4688 7.15598 7.50174L6.44758 7.92459C6.29931 8.01245 6.1126 7.88066 6.15104 7.71042L6.33226 6.90317C6.34873 6.84277 6.32677 6.77687 6.27734 6.73294L5.65681 6.18928C5.52501 6.07396 5.5964 5.8598 5.77213 5.84332L6.59585 5.76644C6.66175 5.76095 6.71666 5.72251 6.74412 5.6621L7.06812 4.90428C7.13401 4.73954 7.35916 4.73954 7.43055 4.89879Z" stroke="#F0C932" stroke-width="0.549146" stroke-miterlimit="10" stroke-linecap="round" stroke-linejoin="round"/>
<path d="M10.9821 6.50485C10.9962 4.44252 9.33589 2.75915 7.27355 2.74496C5.21122 2.73077 3.52785 4.39112 3.51366 6.45346C3.49947 8.5158 5.15982 10.1992 7.22216 10.2134C9.2845 10.2275 10.9679 8.56719 10.9821 6.50485Z" stroke="#F0C932" stroke-width="0.549146" stroke-miterlimit="10" stroke-linecap="round" stroke-linejoin="round"/>
<path d="M6.73861 10.1761L5.81055 12.51L4.63538 11.1645L2.86163 11.3293L4.03681 8.38586" stroke="#F0C932" stroke-width="0.549146" stroke-miterlimit="10" stroke-linecap="round" stroke-linejoin="round"/>
<path d="M7.74907 10.1761L8.68262 12.51L9.8523 11.1645L11.6315 11.3293L10.4509 8.38586" stroke="#F0C932" stroke-width="0.549146" stroke-miterlimit="10" stroke-linecap="round" stroke-linejoin="round"/>
</svg>
